<svg width="20" height="20" viewBox="0 0 20 20" fill="none" xmlns="http://www.w3.org/2000/svg">
<path d="M2.616 8.4C2.272 8.4 2 8.128 2 7.784V5.936C2 3.768 3.768 2 5.936 2H7.784C8.128 2 8.4 2.272 8.4 2.616C8.4 2.96 8.128 3.232 7.784 3.232H5.936C4.44 3.232 3.232 4.448 3.232 5.936V7.784C3.232 8.128 2.952 8.4 2.616 8.4Z" fill="white"/>
<path d="M17.384 8.4C17.048 8.4 16.768 8.128 16.768 7.784V5.936C16.768 4.44 15.552 3.232 14.064 3.232H12.216C11.872 3.232 11.6 2.952 11.6 2.616C11.6 2.28 11.872 2 12.216 2H14.064C16.232 2 18 3.768 18 5.936V7.784C18 8.128 17.728 8.4 17.384 8.4Z" fill="white"/>
<path d="M14.0641 18.0007H12.9521C12.6161 18.0007 12.3361 17.7287 12.3361 17.3847C12.3361 17.0487 12.6081 16.7687 12.9521 16.7687H14.0641C15.5601 16.7687 16.7681 15.5527 16.7681 14.0647V12.9607C16.7681 12.6247 17.0401 12.3447 17.3841 12.3447C17.7201 12.3447 18.0001 12.6167 18.0001 12.9607V14.0647C18.0001 16.2327 16.2321 18.0007 14.0641 18.0007Z" fill="white"/>
<path d="M7.784 18.0006H5.936C3.768 18.0006 2 16.2326 2 14.0646V12.2166C2 11.8726 2.272 11.6006 2.616 11.6006C2.96 11.6006 3.232 11.8726 3.232 12.2166V14.0646C3.232 15.5606 4.448 16.7686 5.936 16.7686H7.784C8.12 16.7686 8.4 17.0406 8.4 17.3846C8.4 17.7286 8.128 18.0006 7.784 18.0006Z" fill="white"/>
<path d="M15.1681 9.38477H14.0801H5.92006H4.83206C4.48806 9.38477 4.21606 9.66477 4.21606 10.0008C4.21606 10.3368 4.48806 10.6168 4.83206 10.6168H5.92006H14.0801H15.1681C15.5121 10.6168 15.7841 10.3368 15.7841 10.0008C15.7841 9.66477 15.5121 9.38477 15.1681 9.38477Z" fill="white"/>
<path d="M5.92004 11.5528V11.8168C5.92004 13.1448 6.99204 14.2168 8.32004 14.2168H11.68C13.008 14.2168 14.08 13.1448 14.08 11.8168V11.5528C14.08 11.4568 14.008 11.3848 13.912 11.3848H6.08804C5.99204 11.3848 5.92004 11.4568 5.92004 11.5528Z" fill="white"/>
<path d="M5.92004 8.44818V8.18418C5.92004 6.85618 6.99204 5.78418 8.32004 5.78418H11.68C13.008 5.78418 14.08 6.85618 14.08 8.18418V8.44818C14.08 8.54418 14.008 8.61618 13.912 8.61618H6.08804C5.99204 8.61618 5.92004 8.54418 5.92004 8.44818Z" fill="white"/>
</svg>
